Coordinates
version=1
nRows=37
nColumns=19
inDegrees=yes

Units are S.I. units (second, meters, Newtons, ...)
If the header above contains a line with 'inDegrees', this indicates whether rotational values are in degrees (yes) or radians (no).

endheader
time	pelvis_tilt	pelvis_list	pelvis_rotation	pelvis_tx	pelvis_ty	pelvis_tz	hip_flexion_r	hip_adduction_r	hip_rotation_r	knee_angle_r	knee_angle_r_beta	ankle_angle_r	hip_flexion_l	hip_adduction_l	hip_rotation_l	knee_angle_l	knee_angle_l_beta	ankle_angle_l
     14.98666667	     -5.13822411	     -4.38306132	     -2.59377638	      2.43482940	      1.03750737	      1.04001070	     29.79220485	      8.18424927	     -1.92101483	     24.86288846	      0.43393927	     -2.66846410	    -10.55808985	     -5.43358077	     -3.18000377	     62.78737994	      1.09584651	    -14.14923289
     14.99333333	     -4.84026682	     -4.86206507	     -2.67652501	      2.43333409	      1.03300305	      1.03992019	     29.73512247	      8.67147067	     -2.65148366	     27.10202218	      0.47301952	     -1.01066973	     -9.18636444	     -6.05768274	     -2.64898008	     67.05680730	      1.17036207	    -14.58205983
     15.00000000	     -4.60212638	     -5.26535403	     -2.74197494	      2.43164264	      1.02818084	      1.03977989	     29.70606807	      9.08204384	     -3.26166943	     29.56908837	      0.51607795	      1.01264335	     -7.65334876	     -6.59373506	     -2.04526288	     71.27176262	      1.24392692	    -15.01638170
     15.00666667	     -4.38420869	     -5.64186665	     -2.76632897	      2.42978289	      1.02321781	      1.03955145	     29.60728397	      9.46927727	     -3.74222043	     32.09714859	      0.56020092	      3.24246859	     -6.01293554	     -7.09372810	     -1.35507526	     75.39193791	      1.31583755	    -15.34122459
     15.01333333	     -4.26122535	     -5.94594702	     -2.78441968	      2.42782639	      1.01815556	      1.03927328	     29.47236809	      9.83375129	     -3.97468836	     34.56395876	      0.60325488	      5.75032944	     -4.19749952	     -7.50623835	     -0.61974785	     79.37398298	      1.38533734	    -15.53146005
     15.02000000	     -3.58514720	     -6.36858980	     -2.93212125	      2.42588922	      1.01391301	      1.03899087	     28.51556095	     10.43658413	     -3.83521816	     36.78104280	      0.64195030	      8.37769052	     -3.05062081	     -8.04534415	     -0.15537710	     83.03139859	      1.44917129	    -15.48390703
     15.02666667	     -4.01827678	     -6.59786907	     -2.69637599	      2.42361910	      1.00864202	      1.03826089	     28.72404135	     10.66543297	     -4.02860646	     38.91128782	      0.67913009	     10.81097387	     -0.35953473	     -8.39486512	      0.96099331	     86.81140088	      1.51514477	    -15.14093152
     15.03333333	     -3.54033697	     -6.88740763	     -2.80074633	      2.42149852	      1.00490110	      1.03777913	     27.65773172	     11.17537608	     -3.62909578	     40.64744830	      0.70943181	     13.32591081	      1.15652596	     -8.80390045	      1.50659249	     90.07650606	      1.57213161	    -14.53194276
     15.04000000	     -4.13843600	     -6.95534577	     -2.67235982	      2.41904420	      1.00039405	      1.03702340	     27.72262675	     11.34865648	     -3.43070328	     42.24536507	      0.73732071	     15.49548736	      4.14690718	     -8.98568850	      2.49067843	     93.36714852	      1.62956415	    -13.78352427
     15.04666667	     -4.18312885	     -7.17494810	     -2.62345786	      2.41682795	      0.99712682	      1.03627311	     26.92709896	     11.71568620	     -3.09757305	     43.39084968	      0.75731319	     17.52778796	      6.45821342	     -9.37594184	      3.22348895	     96.23677741	      1.67964863	    -12.76542926
     15.05333333	     -4.35801001	     -7.21881425	     -2.59397147	      2.41459041	      0.99437183	      1.03551780	     26.13627798	     11.90121654	     -2.67387662	     44.27223124	      0.77269620	     19.33070796	      8.98084018	     -9.57501700	      3.91274687	     98.81197013	      1.72459422	    -11.65413376
     15.06000000	     -4.49650762	     -7.24199143	     -2.56395617	      2.41247288	      0.99232477	      1.03473856	     25.13239145	     12.04178755	     -2.24272396	     44.81973848	      0.78225201	     20.87569733	     11.48867041	     -9.77840500	      4.52855775	    101.05651509	      1.76376892	    -10.45608787
     15.06666667	     -4.66122566	     -7.14195334	     -2.53934778	      2.41054349	      0.99093042	      1.03397149	     23.99882119	     12.02697895	     -1.79346719	     45.07830442	      0.78676483	     22.18012057	     14.03826838	     -9.85068083	      5.05203159	    102.94895355	      1.79679820	     -9.25923018
     15.07333333	     -4.41228030	     -6.88582004	     -2.60500804	      2.40878208	      0.99075759	      1.03334983	     22.24382993	     11.88920950	     -1.09732676	     45.04428622	      0.78617110	     23.21517370	     16.05778847	     -9.76504809	      5.30304899	    104.39475453	      1.82203219	     -8.16120680
     15.08000000	     -4.37382760	     -6.56215062	     -2.65286612	      2.40745665	      0.99104878	      1.03279750	     20.52354985	     11.61988961	     -0.51559292	     44.65671934	      0.77940679	     24.06876515	     18.27611562	     -9.63706335	      5.47323277	    105.48251859	      1.84101725	     -7.01184737
     15.08666667	     -4.48112776	     -6.18504654	     -2.68649072	      2.40633109	      0.99171545	      1.03230807	     18.86389205	     11.23811666	     -0.05283803	     44.07154268	      0.76919353	     24.62710000	     20.63391777	     -9.46260802	      5.56243447	    106.25387810	      1.85448002	     -5.99439087
     15.09333333	     -5.19490795	     -5.74555709	     -2.52353467	      2.40512823	      0.99200896	      1.03173650	     17.86661219	     10.70977915	      0.08841492	     43.42198538	      0.75785661	     24.94340198	     23.76514524	     -9.10086187	      5.86882640	    106.84287145	      1.86475989	     -5.15940528
     15.10000000	     -5.37227923	     -5.21250326	     -2.63505874	      2.40463275	      0.99370828	      1.03170842	     16.04239385	     10.15979944	      0.55665834	     42.39841762	      0.73999199	     24.91164046	     26.00333266	     -8.82308246	      5.59939463	    106.88697979	      1.86552972	     -4.41422565
     15.10666667	     -5.57732455	     -4.60215305	     -2.66182123	      2.40424920	      0.99583825	      1.03164344	     14.17612773	      9.54638611	      1.13931521	     41.19557182	      0.71899837	     24.67086551	     28.20347582	     -8.35414830	      5.33692975	    106.63778377	      1.86118043	     -3.66515442
     15.11333333	     -5.32469091	     -3.79076581	     -2.74381555	      2.40455023	      0.99914143	      1.03181522	     11.66282109	      8.65064691	      1.66295868	     39.71583127	      0.69317202	     24.14574796	     29.64488849	     -7.72480189	      4.72169672	    105.91341559	      1.84853782	     -2.95317105
     15.12000000	     -5.27885512	     -3.02281932	     -2.83888769	      2.40511480	      1.00258102	      1.03216433	      9.32561067	      7.79316629	      2.11494285	     38.08056100	      0.66463117	     23.21468560	     31.20156103	     -7.17529725	      4.03935826	    104.92557583	      1.83129677	     -2.29536316
     15.12666667	     -5.69802867	     -2.31461880	     -2.90374279	      2.40587704	      1.00578755	      1.03255093	      7.49403409	      7.00282016	      2.45899069	     36.37266287	      0.63482272	     21.86001326	     33.18872257	     -6.67884934	      3.37997219	    103.73084697	      1.81044482	     -1.70381949
     15.13333333	     -5.25677221	     -1.35304766	     -3.00991978	      2.40736116	      1.01050814	      1.03313159	      4.62043129	      5.84006714	      2.70284296	     34.39454390	      0.60029804	     20.15384887	     33.91138575	     -5.96063697	      2.34014909	    102.06197626	      1.78131753	     -1.00325218
     15.14000000	     -6.04726282	     -0.74544773	     -3.11069589	      2.40873471	      1.01379387	      1.03378958	      3.21545878	      5.10770975	      2.73188809	     32.58052932	      0.56863751	     18.05925468	     36.01719040	     -5.69457403	      1.50008069	    100.38856408	      1.75211097	     -0.43042813
     15.14666667	     -5.41324751	      0.32484294	     -3.05750934	      2.41086517	      1.01938682	      1.03429629	      0.12265111	      3.79235875	      2.69657656	     30.35748991	      0.52983815	     15.43919736	     36.21376145	     -4.73384448	      0.41551850	     98.14415240	      1.71293860	      0.19961635
     15.15333333	     -5.52636886	      1.06378902	     -3.08770510	      2.41298294	      1.02408037	      1.03489174	     -2.03235560	      2.85414171	      2.50259985	     28.27904880	      0.49356251	     12.46422463	     37.17000228	     -4.26256393	     -0.62585920	     95.83405159	      1.67261974	      0.78463386
     15.16000000	     -6.06994826	      1.76567982	     -2.96846468	      2.41520214	      1.02834557	      1.03528687	     -3.59268608	      1.97680542	      2.05926325	     26.35691133	      0.46001488	      9.20693082	     38.51397099	     -3.74965208	     -1.56120253	     93.35307225	      1.62931848	      1.23231383
     15.16666667	     -6.10654652	      2.42668237	     -2.85337289	      2.41766970	      1.03326925	      1.03568722	     -5.65963586	      1.09350836	      1.35657771	     24.39325801	      0.42574267	      5.56332439	     39.10033486	     -3.29706884	     -2.60488159	     90.60605825	      1.58137404	      1.76234395
     15.17333333	     -6.53528282	      2.95879249	     -2.63400283	      2.42011787	      1.03771258	      1.03586085	     -7.14507087	      0.38726448	      0.50589970	     22.64485351	      0.39522725	      1.78087178	     40.02427927	     -2.91458944	     -3.54070094	     87.70446620	      1.53073170	      2.15083308
     15.18000000	     -7.59437182	      3.12510386	     -2.60776750	      2.42239622	      1.04123456	      1.03619793	     -7.65478319	      0.04686436	     -0.32463905	     21.36836169	      0.37294827	     -2.07824741	     41.53215174	     -3.14057483	     -4.57780992	     84.74111958	      1.47901155	      2.51142161
     15.18666667	     -7.57414261	      3.65663796	     -2.05167501	      2.42511857	      1.04608561	      1.03570309	     -9.50600491	     -0.60983195	     -1.60654703	     19.71484681	      0.34408899	     -5.92296408	     41.66581828	     -2.41799499	     -5.33407656	     81.35334371	      1.41988371	      2.67760992
     15.19333333	     -7.78413514	      3.87615185	     -1.79780610	      2.42762916	      1.05034710	      1.03552049	    -10.80808299	     -0.98824003	     -2.78056311	     18.54841193	      0.32373086	     -9.67722755	     41.91601811	     -2.31303515	     -6.34653758	     77.88205072	      1.35929821	      2.87988392
     15.20000000	     -8.20406245	      3.99410825	     -1.47864638	      2.43002623	      1.05409077	      1.03507590	    -11.68798725	     -1.24795413	     -3.99246363	     17.73403318	      0.30951727	    -13.12089256	     42.28402033	     -2.21689157	     -7.29176539	     74.25318988	      1.29596264	      2.98717732
     15.20666667	     -8.79616761	      3.88131631	     -1.22449409	      2.43227356	      1.05728235	      1.03451521	    -12.18096974	     -1.29333221	     -5.12541256	     17.27240873	      0.30146040	    -16.20287527	     42.73671596	     -2.37145878	     -8.26633167	     70.52192098	      1.23083972	      2.98043415
     15.21333333	     -8.54013792	      4.07965072	     -0.96058432	      2.43443932	      1.06110408	      1.03378602	    -13.45531542	     -1.68336867	     -6.35226385	     17.07332757	      0.29798578	    -18.84287683	     42.07164786	     -2.09815245	     -9.43218079	     66.48462435	      1.16037560	      3.03695054
     15.22000000	     -8.64849395	      4.08807501	     -0.73881662	      2.43642494	      1.06406316	      1.03291067	    -14.12583381	     -1.90334750	     -7.40597302	     17.30851242	      0.30209053	    -20.91506546	     41.72100314	     -2.00326002	    -10.61174662	     62.38286992	      1.08878648	      2.99751546
     15.22666667	     -8.62760661	      4.11452178	     -0.55493180	      2.43819497	      1.06669943	      1.03190586	    -14.75858082	     -2.16629052	     -8.29622340	     17.91381359	      0.31265503	    -22.41575037	     41.12052783	     -1.81089456	    -11.83936239	     58.14565683	      1.01483316	      2.90119039
